<?xml version="1.0" standalone="no"?>
<!DOCTYPE svg PUBLIC "-//W3C//DTD SVG 20010904//EN"
 "http://www.w3.org/TR/2001/REC-SVG-20010904/DTD/svg10.dtd">
<svg version="1.0" xmlns="http://www.w3.org/2000/svg"
 width="248.000000pt" height="116.000000pt" viewBox="0 0 248.000000 116.000000"
 preserveAspectRatio="xMidYMid meet">
<metadata>
Created by potrace 1.16, written by Peter Selinger 2001-2019
</metadata>
<g transform="translate(0.000000,116.000000) scale(0.100000,-0.100000)"
fill="#000000" stroke="none">
<path d="M1000 866 l0 -276 154 0 c207 0 260 21 311 123 21 43 25 64 25 142 0
51 -5 107 -12 126 -18 53 -64 105 -116 131 -42 20 -64 23 -204 26 l-158 4 0
-276z m357 141 c11 -12 -2 -17 -65 -28 l-61 -11 4 -121 c3 -107 1 -125 -17
-161 l-21 -41 -21 28 c-19 26 -21 42 -22 189 l-1 161 99 -5 c54 -3 101 -8 105
-11z"/>
<path d="M6 392 c-3 -10 -5 -82 -4 -160 1 -165 1 -165 96 -161 70 3 99 13 134
46 l28 26 24 -26 c46 -50 126 -62 181 -29 29 18 31 18 60 0 36 -21 90 -23 136
-4 29 12 36 12 56 -1 17 -11 36 -14 68 -10 34 5 45 3 45 -7 0 -7 9 -25 21 -40
18 -23 28 -26 77 -26 63 0 116 25 127 59 5 18 12 20 50 14 27 -3 50 -1 58 5 8
7 18 7 27 2 24 -16 65 -11 89 9 19 17 21 27 18 110 l-3 91 28 0 28 0 0 -94 c0
-106 10 -126 61 -126 63 0 69 10 69 120 0 93 1 100 20 100 11 0 20 -6 21 -12
0 -7 0 -52 0 -100 0 -98 7 -108 71 -108 48 0 58 15 58 86 0 50 3 63 18 66 15
4 17 -2 14 -57 -3 -56 -1 -64 19 -79 32 -22 75 -20 99 4 19 19 22 19 46 4 37
-25 98 -28 139 -8 19 9 35 21 35 27 0 5 9 2 19 -7 11 -10 37 -24 58 -31 28
-10 37 -18 35 -33 -4 -30 21 -43 75 -40 l48 3 3 47 c3 49 9 57 29 37 7 -7 35
-13 64 -15 57 -3 102 14 119 45 14 28 11 178 -5 191 -9 8 -11 5 -7 -15 4 -22
1 -25 -23 -25 l-28 0 27 -21 c14 -11 26 -31 26 -43 0 -25 -33 -60 -68 -71 -52
-15 -122 24 -122 69 0 20 4 22 26 18 l26 -5 -27 27 c-19 19 -26 34 -22 51 2
14 1 22 -3 20 -5 -3 -12 3 -16 13 -6 10 -11 -35 -14 -123 l-5 -140 -37 -3
c-38 -3 -38 -3 -38 35 0 38 -1 39 -35 39 -63 0 -101 70 -84 152 5 26 4 30 -6
22 -9 -8 -15 -7 -19 2 -3 7 -3 -2 0 -19 6 -33 5 -33 -35 -33 -30 0 -41 4 -41
15 0 8 -9 15 -20 15 -17 0 -20 -7 -20 -39 0 -45 17 -62 35 -38 13 18 85 24 85
8 0 -31 -24 -64 -56 -77 -45 -19 -84 -11 -115 22 -20 21 -24 36 -24 84 0 32
-3 56 -8 53 -4 -2 -5 12 -1 31 3 24 0 43 -10 58 -15 22 -16 22 -16 2 0 -11 -5
-25 -12 -32 -9 -9 -9 -12 0 -12 9 0 12 -30 12 -105 l0 -105 -40 0 -40 0 0 105
c0 75 3 105 12 105 9 0 9 3 0 12 -7 7 -12 20 -12 30 0 12 -5 15 -16 11 -12 -5
-15 -15 -10 -48 8 -53 0 -75 -30 -75 -23 0 -24 -3 -24 -70 l0 -70 -41 0 -41 0
2 128 c3 139 1 162 -9 117 -5 -27 -10 -30 -49 -33 l-42 -3 0 -105 0 -104 -41
0 -40 0 3 105 3 104 -40 3 c-33 2 -41 7 -43 26 -2 12 -8 22 -13 22 -11 0 -12
-21 -9 -157 l2 -103 -41 0 -41 0 0 75 c0 60 -3 75 -15 75 -12 0 -15 -15 -15
-75 l0 -75 -40 0 -40 0 0 104 c0 99 -1 104 -20 99 -18 -5 -20 -14 -20 -110 0
-115 -7 -136 -50 -158 -40 -21 -79 -19 -119 6 l-34 20 21 21 c21 21 21 22 2
48 -21 30 -31 115 -16 139 6 10 5 12 -2 7 -8 -5 -12 5 -12 31 0 21 -5 45 -10
53 -8 13 -10 13 -10 -2 0 -9 -7 -24 -16 -32 -14 -15 -14 -16 0 -16 14 0 16
-16 16 -105 l0 -105 -40 0 -40 0 0 105 c0 66 4 105 10 105 6 0 2 10 -9 22 -11
11 -18 26 -14 32 4 7 1 7 -7 -1 -11 -10 -15 -32 -19 -110 -1 -17 -7 -23 -23
-24 l-23 0 23 -16 c23 -16 29 -52 12 -83 -13 -24 -74 -44 -108 -35 -63 15 -99
85 -44 85 23 1 25 2 11 13 -27 21 -38 49 -28 76 9 25 8 25 -6 7 -15 -20 -15
-20 -31 0 -15 18 -15 18 -5 -3 18 -35 14 -93 -6 -93 -14 0 -14 -2 2 -20 22
-25 9 -44 -41 -60 -40 -14 -91 -1 -119 30 -24 26 -32 114 -14 137 11 13 11 15
1 9 -8 -5 -18 -2 -25 9 -11 13 -13 7 -13 -38 -2 -102 -50 -147 -158 -147 l-66
0 0 135 c0 123 -9 166 -24 117z"/>
<path d="M48 404 c-5 -4 -8 -63 -8 -132 l0 -124 66 4 c60 4 70 7 95 36 52 58
47 151 -12 194 -26 20 -128 36 -141 22z m121 -60 c23 -30 27 -83 10 -117 -16
-29 -28 -37 -61 -37 l-28 0 0 90 0 90 29 0 c20 0 36 -9 50 -26z"/>
<path d="M1310 390 c0 -17 6 -20 40 -20 l40 0 0 -110 0 -110 25 0 25 0 0 110
0 110 41 0 c33 0 40 3 37 18 -3 15 -17 17 -106 20 -97 3 -102 2 -102 -18z"/>
<path d="M325 315 c-19 -18 -25 -35 -25 -70 0 -60 32 -95 87 -95 45 1 83 24
66 41 -8 8 -17 8 -32 -1 -27 -14 -58 -5 -71 21 -10 18 -7 19 55 19 71 0 73 3
54 59 -20 56 -91 70 -134 26z"/>
<path d="M540 320 c-37 -37 -18 -72 51 -90 29 -8 39 -16 37 -28 -4 -23 -56
-29 -64 -8 -8 20 -44 21 -44 2 0 -42 102 -62 133 -28 36 39 12 80 -55 96 -37
8 -40 46 -4 46 14 0 28 -4 31 -10 7 -12 45 -13 45 -2 0 5 -8 16 -18 25 -26 24
-87 22 -112 -3z"/>
<path d="M880 320 c-27 -27 -34 -80 -16 -123 16 -39 47 -54 91 -43 28 7 30 4
15 -25 -12 -21 -41 -25 -70 -9 -13 7 -21 7 -25 0 -24 -39 88 -57 125 -20 18
18 20 33 20 129 l0 108 -61 1 c-46 1 -64 -3 -79 -18z"/>
<path d="M1090 245 c0 -95 0 -95 25 -95 24 0 25 2 25 69 0 76 16 104 48 84 13
-7 18 -28 20 -82 3 -69 4 -71 29 -71 l26 0 -5 79 c-3 44 -10 87 -18 95 -14 18
-52 21 -81 6 -13 -7 -19 -7 -19 0 0 5 -11 10 -25 10 -25 0 -25 0 -25 -95z"/>
<path d="M1865 315 c-19 -18 -25 -35 -25 -70 0 -59 32 -95 84 -95 33 0 76 29
76 52 0 13 -29 9 -54 -7 -30 -20 -53 -10 -61 25 -14 65 32 118 63 71 16 -24
52 -28 52 -6 0 8 -9 24 -20 35 -29 29 -84 27 -115 -5z"/>
<path d="M2078 323 c-37 -43 -29 -141 14 -164 11 -6 35 -8 54 -4 l34 6 0 -41
c0 -33 3 -40 20 -40 19 0 20 7 20 130 0 123 -1 130 -20 130 -11 0 -20 -5 -20
-12 0 -9 -3 -9 -12 0 -18 18 -73 15 -90 -5z"/>
<path d="M2307 322 c-35 -38 -17 -77 41 -88 35 -7 57 -28 47 -44 -10 -15 -55
-12 -61 5 -6 15 -54 21 -54 7 0 -5 10 -18 23 -30 44 -41 137 -19 137 32 0 29
-14 41 -65 58 -21 7 -40 19 -43 25 -6 19 27 28 49 15 23 -14 59 -16 59 -3 0
19 -45 41 -81 41 -22 0 -42 -7 -52 -18z"/>
</g>
</svg>
